<svg xmlns="http://www.w3.org/2000/svg" width="1200" height="630" viewBox="0 0 1200 630">
  <defs>
    <style>text { font-family: 'JetBrains Mono', 'Courier New', monospace; }</style>
    <pattern id="dots" width="20" height="20" patternUnits="userSpaceOnUse">
      <circle cx="10" cy="10" r="0.5" fill="#555566" opacity="0.3"/>
    </pattern>
  </defs>
  <rect width="1200" height="630" fill="#0d0e17"/>
  <rect width="1200" height="630" fill="url(#dots)"/>
  <path d="M20,20 L20,50 M20,20 L50,20" stroke="#555566" stroke-width="2" fill="none"/>
  <path d="M1180,20 L1180,50 M1180,20 L1150,20" stroke="#555566" stroke-width="2" fill="none"/>
  <path d="M20,610 L20,580 M20,610 L50,610" stroke="#555566" stroke-width="2" fill="none"/>
  <path d="M1180,610 L1180,580 M1180,610 L1150,610" stroke="#555566" stroke-width="2" fill="none"/>
  <text x="40" y="50" fill="#555566" font-size="10" letter-spacing="2" opacity="0.5">MICROGRAPHICS</text>
  <!-- Title -->
  <text x="600" y="80" text-anchor="middle" fill="#3ecf8e" font-size="42" font-weight="700" letter-spacing="4">FULL LIBRARY</text>
  <text x="600" y="110" text-anchor="middle" fill="#555566" font-size="14">ALL 84 COMPONENTS — ALL 4 FRAMEWORKS</text>
  <!-- Price -->
  <text x="600" y="175" text-anchor="middle" fill="#3ecf8e" font-size="64" font-weight="700">$149</text>
  <!-- Framework badges -->
  <g transform="translate(330, 200)">
    <rect x="0" y="0" width="100" height="30" fill="none" stroke="#60cfff" stroke-width="1.5" rx="4"/>
    <text x="50" y="20" text-anchor="middle" fill="#60cfff" font-size="12" font-weight="700">REACT</text>
    <rect x="115" y="0" width="100" height="30" fill="none" stroke="#3ecf8e" stroke-width="1.5" rx="4"/>
    <text x="165" y="20" text-anchor="middle" fill="#3ecf8e" font-size="12" font-weight="700">VUE</text>
    <rect x="230" y="0" width="100" height="30" fill="none" stroke="#f5a623" stroke-width="1.5" rx="4"/>
    <text x="280" y="20" text-anchor="middle" fill="#f5a623" font-size="12" font-weight="700">SVELTE</text>
    <rect x="345" y="0" width="100" height="30" fill="none" stroke="#a78bfa" stroke-width="1.5" rx="4"/>
    <text x="395" y="20" text-anchor="middle" fill="#a78bfa" font-size="12" font-weight="700">VANILLA</text>
  </g>
  <!-- Component visualization row -->
  <!-- Signals -->
  <g transform="translate(60, 280)">
    <rect x="0" y="28" width="6" height="12" fill="#3ecf8e" rx="1"/>
    <rect x="9" y="22" width="6" height="18" fill="#3ecf8e" rx="1"/>
    <rect x="18" y="14" width="6" height="26" fill="#3ecf8e" rx="1"/>
    <rect x="27" y="6" width="6" height="34" fill="#3ecf8e" rx="1"/>
    <rect x="36" y="0" width="6" height="40" fill="#3ecf8e" rx="1"/>
  </g>
  <!-- Heartbeat -->
  <g transform="translate(120, 295)">
    <polyline points="0,15 12,15 18,5 22,25 28,15 45,15" stroke="#e05252" stroke-width="1.5" fill="none"/>
  </g>
  <!-- Radar -->
  <g transform="translate(200, 290)">
    <circle cx="15" cy="15" r="15" stroke="#3ecf8e" stroke-width="0.5" fill="none" opacity="0.4"/>
    <line x1="15" y1="15" x2="27" y2="5" stroke="#3ecf8e" stroke-width="0.8"/>
    <circle cx="23" cy="9" r="1.5" fill="#3ecf8e"/>
  </g>
  <!-- Heat grid -->
  <g transform="translate(260, 290)">
    <rect x="0" y="0" width="8" height="8" fill="#3ecf8e" rx="1" opacity="0.8"/>
    <rect x="10" y="0" width="8" height="8" fill="#f5a623" rx="1" opacity="0.7"/>
    <rect x="20" y="0" width="8" height="8" fill="#e05252" rx="1" opacity="0.6"/>
    <rect x="0" y="10" width="8" height="8" fill="#f5a623" rx="1" opacity="0.6"/>
    <rect x="10" y="10" width="8" height="8" fill="#3ecf8e" rx="1" opacity="0.9"/>
    <rect x="20" y="10" width="8" height="8" fill="#f5a623" rx="1" opacity="0.5"/>
    <rect x="0" y="20" width="8" height="8" fill="#e05252" rx="1" opacity="0.7"/>
    <rect x="10" y="20" width="8" height="8" fill="#e05252" rx="1" opacity="0.8"/>
    <rect x="20" y="20" width="8" height="8" fill="#3ecf8e" rx="1" opacity="0.5"/>
  </g>
  <!-- Clock -->
  <g transform="translate(330, 290)">
    <text x="0" y="18" fill="#3ecf8e" font-size="18" font-weight="700">14:32</text>
  </g>
  <!-- Typewriter -->
  <g transform="translate(430, 290)">
    <text x="0" y="18" fill="#3ecf8e" font-size="14">SYS_</text>
    <rect x="42" y="4" width="8" height="16" fill="#3ecf8e" opacity="0.6"/>
  </g>
  <!-- Gauge -->
  <g transform="translate(520, 290)">
    <path d="M0,25 A20,20 0 0,1 40,25" stroke="#555566" stroke-width="1" fill="none"/>
    <path d="M0,25 A20,20 0 0,1 30,8" stroke="#3ecf8e" stroke-width="2" fill="none"/>
    <circle cx="20" cy="25" r="2" fill="#3ecf8e"/>
  </g>
  <!-- Compass -->
  <g transform="translate(590, 290)">
    <circle cx="15" cy="15" r="14" stroke="#555566" stroke-width="0.6" fill="none"/>
    <polygon points="15,4 12,15 18,15" fill="#e05252" opacity="0.7"/>
  </g>
  <!-- Toggle -->
  <g transform="translate(650, 295)">
    <rect x="0" y="0" width="32" height="16" fill="#3ecf8e" rx="8" opacity="0.3"/>
    <circle cx="22" cy="8" r="6" fill="#3ecf8e"/>
  </g>
  <!-- Progress -->
  <g transform="translate(710, 298)">
    <rect x="0" y="0" width="50" height="8" fill="#555566" rx="2" opacity="0.3"/>
    <rect x="0" y="0" width="35" height="8" fill="#3ecf8e" rx="2"/>
  </g>
  <!-- Orbit -->
  <g transform="translate(790, 290)">
    <circle cx="15" cy="15" r="14" stroke="#555566" stroke-width="0.5" fill="none" stroke-dasharray="2,2"/>
    <circle cx="15" cy="15" r="4" fill="#3ecf8e"/>
    <circle cx="29" cy="15" r="2.5" fill="#60cfff"/>
  </g>
  <!-- Barcode -->
  <g transform="translate(840, 290)">
    <rect x="0" y="0" width="2" height="25" fill="#3ecf8e"/>
    <rect x="4" y="0" width="1" height="25" fill="#3ecf8e"/>
    <rect x="7" y="0" width="3" height="25" fill="#3ecf8e"/>
    <rect x="12" y="0" width="1" height="25" fill="#3ecf8e"/>
    <rect x="15" y="0" width="2" height="25" fill="#3ecf8e"/>
    <rect x="19" y="0" width="3" height="25" fill="#3ecf8e"/>
    <rect x="24" y="0" width="1" height="25" fill="#3ecf8e"/>
    <rect x="27" y="0" width="2" height="25" fill="#3ecf8e"/>
  </g>
  <!-- Crosshair -->
  <g transform="translate(900, 290)">
    <circle cx="15" cy="15" r="12" stroke="#3ecf8e" stroke-width="0.6" fill="none"/>
    <line x1="3" y1="15" x2="27" y2="15" stroke="#3ecf8e" stroke-width="0.5"/>
    <line x1="15" y1="3" x2="15" y2="27" stroke="#3ecf8e" stroke-width="0.5"/>
    <circle cx="15" cy="15" r="2" fill="#3ecf8e"/>
  </g>
  <!-- Binary -->
  <g transform="translate(950, 292)">
    <text x="0" y="12" fill="#3ecf8e" font-size="10" opacity="0.7">01001</text>
    <text x="0" y="24" fill="#3ecf8e" font-size="10" opacity="0.5">10110</text>
  </g>
  <!-- Frequency -->
  <g transform="translate(1030, 290)">
    <rect x="0" y="20" width="4" height="10" fill="#3ecf8e" rx="1"/>
    <rect x="6" y="12" width="4" height="18" fill="#3ecf8e" rx="1"/>
    <rect x="12" y="5" width="4" height="25" fill="#3ecf8e" rx="1"/>
    <rect x="18" y="10" width="4" height="20" fill="#3ecf8e" rx="1"/>
    <rect x="24" y="15" width="4" height="15" fill="#3ecf8e" rx="1"/>
    <rect x="30" y="8" width="4" height="22" fill="#3ecf8e" rx="1"/>
  </g>
  <!-- Dots label -->
  <g transform="translate(1100, 290)">
    <circle cx="5" cy="10" r="4" fill="#3ecf8e"/>
    <circle cx="5" cy="22" r="4" fill="#f5a623"/>
  </g>
  <!-- Pack labels -->
  <g transform="translate(60, 360)">
    <rect x="0" y="0" width="120" height="24" fill="none" stroke="#3ecf8e" stroke-width="0.5" rx="2" opacity="0.5"/>
    <text x="60" y="16" text-anchor="middle" fill="#3ecf8e" font-size="8">SIGNALS · 23</text>
    <rect x="130" y="0" width="120" height="24" fill="none" stroke="#3ecf8e" stroke-width="0.5" rx="2" opacity="0.5"/>
    <text x="190" y="16" text-anchor="middle" fill="#3ecf8e" font-size="8">DATA VIZ · 11</text>
    <rect x="260" y="0" width="120" height="24" fill="none" stroke="#3ecf8e" stroke-width="0.5" rx="2" opacity="0.5"/>
    <text x="320" y="16" text-anchor="middle" fill="#3ecf8e" font-size="8">TEXT · 12</text>
    <rect x="390" y="0" width="120" height="24" fill="none" stroke="#3ecf8e" stroke-width="0.5" rx="2" opacity="0.5"/>
    <text x="450" y="16" text-anchor="middle" fill="#3ecf8e" font-size="8">CHROME · 11</text>
    <rect x="520" y="0" width="120" height="24" fill="none" stroke="#3ecf8e" stroke-width="0.5" rx="2" opacity="0.5"/>
    <text x="580" y="16" text-anchor="middle" fill="#3ecf8e" font-size="8">CLOCKS · 6</text>
    <rect x="650" y="0" width="120" height="24" fill="none" stroke="#3ecf8e" stroke-width="0.5" rx="2" opacity="0.5"/>
    <text x="710" y="16" text-anchor="middle" fill="#3ecf8e" font-size="8">GAUGES · 8</text>
    <rect x="780" y="0" width="140" height="24" fill="none" stroke="#3ecf8e" stroke-width="0.5" rx="2" opacity="0.5"/>
    <text x="850" y="16" text-anchor="middle" fill="#3ecf8e" font-size="8">INTERACTION · 5</text>
    <rect x="930" y="0" width="130" height="24" fill="none" stroke="#3ecf8e" stroke-width="0.5" rx="2" opacity="0.5"/>
    <text x="995" y="16" text-anchor="middle" fill="#3ecf8e" font-size="8">ORBIT &amp; NAV · 8</text>
  </g>
  <!-- Features -->
  <g transform="translate(150, 440)">
    <text x="0" y="0" fill="#3ecf8e" font-size="12">+</text>
    <text x="20" y="0" fill="#555566" font-size="12">React, Vue, Svelte, Vanilla JS</text>
    <text x="0" y="25" fill="#3ecf8e" font-size="12">+</text>
    <text x="20" y="25" fill="#555566" font-size="12">Full TypeScript support</text>
    <text x="0" y="50" fill="#3ecf8e" font-size="12">+</text>
    <text x="20" y="50" fill="#555566" font-size="12">5 built-in color themes</text>
    <text x="450" y="0" fill="#3ecf8e" font-size="12">+</text>
    <text x="470" y="0" fill="#555566" font-size="12">Tree-shakeable, zero dependencies</text>
    <text x="450" y="25" fill="#3ecf8e" font-size="12">+</text>
    <text x="470" y="25" fill="#555566" font-size="12">SSR compatible</text>
    <text x="450" y="50" fill="#3ecf8e" font-size="12">+</text>
    <text x="470" y="50" fill="#555566" font-size="12">Lifetime updates included</text>
  </g>
  <line x1="40" y1="580" x2="1160" y2="580" stroke="#555566" stroke-width="0.5" stroke-dasharray="4,4" opacity="0.3"/>
  <text x="600" y="600" text-anchor="middle" fill="#555566" font-size="11" letter-spacing="3">MICROGRAPHICS — FULL LIBRARY — ALL FRAMEWORKS — $149</text>
</svg>