<svg xmlns="http://www.w3.org/2000/svg" width="1200" height="630" viewBox="0 0 1200 630">
  <defs>
    <style>text { font-family: 'JetBrains Mono', 'Courier New', monospace; }</style>
    <pattern id="dots" width="20" height="20" patternUnits="userSpaceOnUse">
      <circle cx="10" cy="10" r="0.5" fill="#555566" opacity="0.3"/>
    </pattern>
  </defs>
  <rect width="1200" height="630" fill="#0d0e17"/>
  <rect width="1200" height="630" fill="url(#dots)"/>
  <path d="M20,20 L20,50 M20,20 L50,20" stroke="#555566" stroke-width="2" fill="none"/>
  <path d="M1180,20 L1180,50 M1180,20 L1150,20" stroke="#555566" stroke-width="2" fill="none"/>
  <path d="M20,610 L20,580 M20,610 L50,610" stroke="#555566" stroke-width="2" fill="none"/>
  <path d="M1180,610 L1180,580 M1180,610 L1150,610" stroke="#555566" stroke-width="2" fill="none"/>
  <text x="40" y="50" fill="#555566" font-size="10" letter-spacing="2" opacity="0.5">MICROGRAPHICS</text>
  <!-- Title -->
  <text x="600" y="80" text-anchor="middle" fill="#3ecf8e" font-size="42" font-weight="700" letter-spacing="4">LIFETIME ACCESS</text>
  <text x="600" y="110" text-anchor="middle" fill="#555566" font-size="14">ALL COMPONENTS — ALL FRAMEWORKS — FOREVER</text>
  <!-- Price -->
  <text x="600" y="185" text-anchor="middle" fill="#3ecf8e" font-size="72" font-weight="700">$199</text>
  <!-- Infinity symbol (large) -->
  <g transform="translate(600, 280)">
    <path d="M-60,0 C-60,-35 -20,-35 0,0 C20,35 60,35 60,0 C60,-35 20,-35 0,0 C-20,35 -60,35 -60,0 Z" stroke="#3ecf8e" stroke-width="3" fill="none"/>
    <path d="M-50,0 C-50,-25 -15,-25 0,0 C15,25 50,25 50,0 C50,-25 15,-25 0,0 C-15,25 -50,25 -50,0 Z" stroke="#3ecf8e" stroke-width="1.5" fill="none" opacity="0.4"/>
  </g>
  <text x="600" y="330" text-anchor="middle" fill="#555566" font-size="12" letter-spacing="3">UNLIMITED UPDATES</text>
  <!-- Feature bullets -->
  <g transform="translate(300, 380)">
    <rect x="0" y="0" width="600" height="200" fill="none" stroke="#555566" stroke-width="0.5" rx="4" opacity="0.3"/>
    <text x="300" y="28" text-anchor="middle" fill="#3ecf8e" font-size="14" letter-spacing="2">WHAT YOU GET</text>
    <line x1="20" y1="40" x2="580" y2="40" stroke="#555566" stroke-width="0.5" opacity="0.3"/>
    <text x="30" y="65" fill="#3ecf8e" font-size="14">+</text>
    <text x="55" y="65" fill="#555566" font-size="13">84 animated micro-UI components</text>
    <text x="30" y="90" fill="#3ecf8e" font-size="14">+</text>
    <text x="55" y="90" fill="#555566" font-size="13">React, Vue, Svelte, and Vanilla JS</text>
    <text x="30" y="115" fill="#3ecf8e" font-size="14">+</text>
    <text x="55" y="115" fill="#555566" font-size="13">5 color themes (Phosphor, Amber, Ice, Violet, Crimson)</text>
    <text x="30" y="140" fill="#3ecf8e" font-size="14">+</text>
    <text x="55" y="140" fill="#555566" font-size="13">Full TypeScript support + tree-shakeable</text>
    <text x="30" y="165" fill="#3ecf8e" font-size="14">+</text>
    <text x="55" y="165" fill="#555566" font-size="13">All future components + updates — forever</text>
    <text x="30" y="190" fill="#3ecf8e" font-size="14">+</text>
    <text x="55" y="190" fill="#555566" font-size="13">Priority support + early access to new packs</text>
  </g>
  <!-- Decorative elements -->
  <g transform="translate(100, 280)">
    <rect x="0" y="10" width="6" height="8" fill="#3ecf8e" rx="1" opacity="0.5"/>
    <rect x="9" y="6" width="6" height="12" fill="#3ecf8e" rx="1" opacity="0.6"/>
    <rect x="18" y="2" width="6" height="16" fill="#3ecf8e" rx="1" opacity="0.7"/>
    <rect x="27" y="0" width="6" height="20" fill="#3ecf8e" rx="1" opacity="0.9"/>
  </g>
  <g transform="translate(1060, 280)">
    <circle cx="0" cy="10" r="8" stroke="#3ecf8e" stroke-width="0.5" fill="none" stroke-dasharray="2,2"/>
    <circle cx="0" cy="10" r="4" fill="#3ecf8e"/>
  </g>
  <line x1="40" y1="580" x2="1160" y2="580" stroke="#555566" stroke-width="0.5" stroke-dasharray="4,4" opacity="0.3"/>
  <text x="600" y="600" text-anchor="middle" fill="#555566" font-size="11" letter-spacing="3">MICROGRAPHICS — LIFETIME ACCESS — $199 ONE-TIME</text>
</svg>