<svg xmlns="http://www.w3.org/2000/svg" width="1200" height="630" viewBox="0 0 1200 630">
  <defs>
    <style>text { font-family: 'JetBrains Mono', 'Courier New', monospace; }</style>
    <pattern id="dots" width="20" height="20" patternUnits="userSpaceOnUse">
      <circle cx="10" cy="10" r="0.5" fill="#555566" opacity="0.3"/>
    </pattern>
  </defs>
  <rect width="1200" height="630" fill="#0d0e17"/>
  <rect width="1200" height="630" fill="url(#dots)"/>
  <path d="M20,20 L20,50 M20,20 L50,20" stroke="#555566" stroke-width="2" fill="none"/>
  <path d="M1180,20 L1180,50 M1180,20 L1150,20" stroke="#555566" stroke-width="2" fill="none"/>
  <path d="M20,610 L20,580 M20,610 L50,610" stroke="#555566" stroke-width="2" fill="none"/>
  <path d="M1180,610 L1180,580 M1180,610 L1150,610" stroke="#555566" stroke-width="2" fill="none"/>
  <text x="40" y="50" fill="#555566" font-size="10" letter-spacing="2" opacity="0.5">MICROGRAPHICS</text>
  <text x="600" y="100" text-anchor="middle" fill="#3ecf8e" font-size="48" font-weight="700" letter-spacing="6">TEXT PACK</text>
  <text x="600" y="130" text-anchor="middle" fill="#555566" font-size="16">12 Components</text>
  <!-- Typewriter text -->
  <text x="100" y="220" fill="#3ecf8e" font-size="28">SYSTEM ONLINE_</text>
  <rect x="370" y="200" width="16" height="28" fill="#3ecf8e" opacity="0.7"/>
  <text x="100" y="250" fill="#555566" font-size="12">TYPEWRITER EFFECT</text>
  <!-- Glitch text -->
  <text x="100" y="330" fill="#3ecf8e" font-size="28" opacity="0.8">GLITCH</text>
  <text x="103" y="327" fill="#e05252" font-size="28" opacity="0.3">GLITCH</text>
  <text x="97" y="333" fill="#60cfff" font-size="28" opacity="0.3">GLITCH</text>
  <text x="100" y="360" fill="#555566" font-size="12">GLITCH TEXT</text>
  <!-- Matrix rain columns -->
  <g opacity="0.8">
    <text x="600" y="200" fill="#3ecf8e" font-size="14" opacity="0.3">0</text>
    <text x="600" y="220" fill="#3ecf8e" font-size="14" opacity="0.4">1</text>
    <text x="600" y="240" fill="#3ecf8e" font-size="14" opacity="0.5">0</text>
    <text x="600" y="260" fill="#3ecf8e" font-size="14" opacity="0.7">1</text>
    <text x="600" y="280" fill="#3ecf8e" font-size="14" opacity="0.9">0</text>
    <text x="600" y="300" fill="#3ecf8e" font-size="14" opacity="1.0">1</text>
    <text x="620" y="210" fill="#3ecf8e" font-size="14" opacity="0.2">1</text>
    <text x="620" y="230" fill="#3ecf8e" font-size="14" opacity="0.4">0</text>
    <text x="620" y="250" fill="#3ecf8e" font-size="14" opacity="0.6">1</text>
    <text x="620" y="270" fill="#3ecf8e" font-size="14" opacity="0.8">1</text>
    <text x="620" y="290" fill="#3ecf8e" font-size="14" opacity="1.0">0</text>
    <text x="640" y="190" fill="#3ecf8e" font-size="14" opacity="0.2">0</text>
    <text x="640" y="210" fill="#3ecf8e" font-size="14" opacity="0.3">1</text>
    <text x="640" y="230" fill="#3ecf8e" font-size="14" opacity="0.5">1</text>
    <text x="640" y="250" fill="#3ecf8e" font-size="14" opacity="0.7">0</text>
    <text x="640" y="270" fill="#3ecf8e" font-size="14" opacity="0.9">1</text>
    <text x="640" y="290" fill="#3ecf8e" font-size="14" opacity="1.0">0</text>
    <text x="660" y="220" fill="#3ecf8e" font-size="14" opacity="0.3">1</text>
    <text x="660" y="240" fill="#3ecf8e" font-size="14" opacity="0.5">0</text>
    <text x="660" y="260" fill="#3ecf8e" font-size="14" opacity="0.7">0</text>
    <text x="660" y="280" fill="#3ecf8e" font-size="14" opacity="0.9">1</text>
    <text x="680" y="200" fill="#3ecf8e" font-size="14" opacity="0.2">0</text>
    <text x="680" y="220" fill="#3ecf8e" font-size="14" opacity="0.4">1</text>
    <text x="680" y="240" fill="#3ecf8e" font-size="14" opacity="0.6">0</text>
    <text x="680" y="260" fill="#3ecf8e" font-size="14" opacity="0.8">1</text>
    <text x="680" y="280" fill="#3ecf8e" font-size="14" opacity="1.0">1</text>
    <text x="700" y="190" fill="#3ecf8e" font-size="14" opacity="0.3">1</text>
    <text x="700" y="210" fill="#3ecf8e" font-size="14" opacity="0.5">0</text>
    <text x="700" y="230" fill="#3ecf8e" font-size="14" opacity="0.7">1</text>
    <text x="700" y="250" fill="#3ecf8e" font-size="14" opacity="0.9">0</text>
    <text x="700" y="270" fill="#3ecf8e" font-size="14" opacity="1.0">1</text>
  </g>
  <text x="650" y="330" text-anchor="middle" fill="#555566" font-size="12">MATRIX RAIN</text>
  <!-- Binary stream -->
  <text x="100" y="440" fill="#3ecf8e" font-size="16" opacity="0.6">01001000 01000101 01001100 01001100 01001111</text>
  <text x="100" y="465" fill="#3ecf8e" font-size="16" opacity="0.4">10110100 11001010 00101101 11100010 01011001</text>
  <text x="100" y="490" fill="#555566" font-size="12">BINARY STREAM</text>
  <!-- Scramble text -->
  <text x="850" y="220" fill="#3ecf8e" font-size="24">D@T&amp; L!NK</text>
  <text x="850" y="250" fill="#555566" font-size="12">SCRAMBLE TEXT</text>
  <!-- Redacted text -->
  <text x="850" y="330" fill="#3ecf8e" font-size="18">ACCESS: </text>
  <rect x="975" y="314" width="120" height="20" fill="#3ecf8e" rx="2"/>
  <text x="850" y="360" fill="#555566" font-size="12">REDACTED TEXT</text>
  <!-- Rolling counter -->
  <text x="850" y="440" fill="#3ecf8e" font-size="36" font-weight="700">00:42:17</text>
  <text x="850" y="465" fill="#555566" font-size="12">ROLLING COUNTER</text>
  <line x1="40" y1="580" x2="1160" y2="580" stroke="#555566" stroke-width="0.5" stroke-dasharray="4,4" opacity="0.3"/>
  <text x="600" y="600" text-anchor="middle" fill="#555566" font-size="11" letter-spacing="3">MICROGRAPHICS — TEXT PACK — 12 ANIMATED COMPONENTS</text>
</svg>