<svg xmlns="http://www.w3.org/2000/svg" width="800" height="140" viewBox="0 0 800 140">
  <defs>
    <style>
      @import url('https://fonts.googleapis.com/css2?family=JetBrains+Mono:wght@400;700&amp;display=swap');
      text { font-family: 'JetBrains Mono', 'Courier New', monospace; }
    </style>
  </defs>
  <rect width="800" height="140" fill="#0d0e17"/>
  <!-- Corner ornaments (L-brackets) -->
  <path d="M4,4 L4,24 M4,4 L24,4" stroke="#555566" stroke-width="2" fill="none"/>
  <path d="M796,4 L796,24 M796,4 L776,4" stroke="#555566" stroke-width="2" fill="none"/>
  <path d="M4,136 L4,116 M4,136 L24,136" stroke="#555566" stroke-width="2" fill="none"/>
  <path d="M796,136 L796,116 M796,136 L776,136" stroke="#555566" stroke-width="2" fill="none"/>
  <!-- Signal bars (left side) -->
  <rect x="40" y="60" width="5" height="10" fill="#3ecf8e" rx="1"/>
  <rect x="48" y="55" width="5" height="15" fill="#3ecf8e" rx="1"/>
  <rect x="56" y="48" width="5" height="22" fill="#3ecf8e" rx="1"/>
  <rect x="64" y="40" width="5" height="30" fill="#3ecf8e" rx="1"/>
  <rect x="72" y="30" width="5" height="40" fill="#3ecf8e" rx="1"/>
  <!-- Main title -->
  <text x="400" y="55" text-anchor="middle" fill="#3ecf8e" font-size="32" font-weight="700" letter-spacing="8">MICROGRAPHICS</text>
  <!-- Subtitle -->
  <text x="400" y="78" text-anchor="middle" fill="#555566" font-size="12" letter-spacing="2">84 ANIMATED MICRO-UI COMPONENTS</text>
  <!-- Status squares (right side) -->
  <rect x="710" y="42" width="10" height="10" fill="#3ecf8e" rx="1"/>
  <rect x="724" y="42" width="10" height="10" fill="#f5a623" rx="1"/>
  <rect x="738" y="42" width="10" height="10" fill="#e05252" rx="1"/>
  <rect x="752" y="42" width="10" height="10" fill="#555566" rx="1"/>
  <!-- Bottom section -->
  <!-- Barcode bars (left) -->
  <rect x="40" y="105" width="2" height="18" fill="#555566"/>
  <rect x="44" y="105" width="1" height="18" fill="#555566"/>
  <rect x="47" y="105" width="3" height="18" fill="#555566"/>
  <rect x="52" y="105" width="1" height="18" fill="#555566"/>
  <rect x="55" y="105" width="2" height="18" fill="#555566"/>
  <rect x="59" y="105" width="1" height="18" fill="#555566"/>
  <rect x="62" y="105" width="3" height="18" fill="#555566"/>
  <rect x="67" y="105" width="1" height="18" fill="#555566"/>
  <rect x="70" y="105" width="2" height="18" fill="#555566"/>
  <rect x="74" y="105" width="1" height="18" fill="#555566"/>
  <rect x="77" y="105" width="2" height="18" fill="#555566"/>
  <rect x="81" y="105" width="3" height="18" fill="#555566"/>
  <rect x="86" y="105" width="1" height="18" fill="#555566"/>
  <rect x="89" y="105" width="2" height="18" fill="#555566"/>
  <!-- Dashed line across middle -->
  <line x1="120" y1="114" x2="580" y2="114" stroke="#555566" stroke-width="1" stroke-dasharray="4,4" opacity="0.5"/>
  <!-- Framework labels (right) -->
  <text x="600" y="118" fill="#555566" font-size="10" letter-spacing="3">REACT · VUE · SVELTE · VANILLA</text>
</svg>