<svg xmlns="http://www.w3.org/2000/svg" width="800" height="140" viewBox="0 0 800 140">
  <rect width="800" height="140" fill="#0d0e17"/>
  <!-- Corner ornaments -->
  <line x1="0" y1="20" x2="0" y2="0" stroke="#555566" stroke-width="1.5"/>
  <line x1="0" y1="0" x2="20" y2="0" stroke="#555566" stroke-width="1.5"/>
  <line x1="780" y1="0" x2="800" y2="0" stroke="#555566" stroke-width="1.5"/>
  <line x1="800" y1="0" x2="800" y2="20" stroke="#555566" stroke-width="1.5"/>
  <line x1="0" y1="120" x2="0" y2="140" stroke="#555566" stroke-width="1.5"/>
  <line x1="0" y1="140" x2="20" y2="140" stroke="#555566" stroke-width="1.5"/>
  <line x1="800" y1="120" x2="800" y2="140" stroke="#555566" stroke-width="1.5"/>
  <line x1="780" y1="140" x2="800" y2="140" stroke="#555566" stroke-width="1.5"/>
  <!-- Title -->
  <text x="400" y="55" text-anchor="middle" fill="#3ecf8e" font-family="monospace" font-size="32" font-weight="bold" letter-spacing="8">MICROGRAPHICS</text>
  <text x="400" y="82" text-anchor="middle" fill="#555566" font-family="monospace" font-size="12" letter-spacing="4">84 ANIMATED MICRO-UI COMPONENTS</text>
  <!-- Signal bars left -->
  <rect x="40" y="98" width="6" height="8" fill="#3ecf8e" opacity="0.5"/>
  <rect x="48" y="94" width="6" height="12" fill="#3ecf8e" opacity="0.6"/>
  <rect x="56" y="88" width="6" height="18" fill="#3ecf8e" opacity="0.7"/>
  <rect x="64" y="82" width="6" height="24" fill="#3ecf8e" opacity="0.85"/>
  <rect x="72" y="76" width="6" height="30" fill="#3ecf8e" opacity="1"/>
  <!-- Status dots -->
  <rect x="700" y="96" width="8" height="8" fill="#3ecf8e"/>
  <rect x="712" y="96" width="8" height="8" fill="#f5a623"/>
  <rect x="724" y="96" width="8" height="8" fill="#e05252"/>
  <rect x="736" y="96" width="8" height="8" fill="#555566"/>
  <!-- Barcode left -->
  <rect x="40" y="116" width="2" height="12" fill="#555566"/>
  <rect x="44" y="116" width="1" height="12" fill="#555566"/>
  <rect x="47" y="116" width="2" height="12" fill="#555566"/>
  <rect x="51" y="116" width="1" height="12" fill="#555566"/>
  <rect x="54" y="116" width="2" height="12" fill="#555566"/>
  <rect x="58" y="116" width="1" height="12" fill="#555566"/>
  <rect x="61" y="116" width="2" height="12" fill="#555566"/>
  <rect x="65" y="116" width="1" height="12" fill="#555566"/>
  <rect x="68" y="116" width="2" height="12" fill="#555566"/>
  <!-- Divider line -->
  <line x1="90" y1="122" x2="690" y2="122" stroke="#555566" stroke-width="0.5" stroke-dasharray="2 3"/>
  <!-- Framework labels -->
  <text x="700" y="126" text-anchor="end" fill="#555566" font-family="monospace" font-size="9" letter-spacing="1.5">REACT · VUE · SVELTE · VANILLA</text>
</svg>
