<svg xmlns="http://www.w3.org/2000/svg" width="240" height="100" viewBox="0 0 240 100">
  <rect width="240" height="100" fill="#13141f" rx="3"/>
  <text x="14" y="20" fill="#555566" font-family="monospace" font-size="8" letter-spacing="1.5">GAUGES &amp; DIALS</text>
  <!-- Dial gauge -->
  <path d="M 20 68 A 32 32 0 0 1 84 68" fill="none" stroke="#555566" stroke-width="1"/>
  <path d="M 20 68 A 32 32 0 0 1 74 42" fill="none" stroke="#3ecf8e" stroke-width="2.5"/>
  <line x1="52" y1="68" x2="70" y2="46" stroke="#e8e8e8" stroke-width="1.2"/>
  <circle cx="52" cy="68" r="2.5" fill="#e8e8e8"/>
  <text x="42" y="82" fill="#3ecf8e" font-family="monospace" font-size="10">72</text>
  <text x="36" y="92" fill="#555566" font-family="monospace" font-size="7">RPM</text>
  <!-- Speedometer -->
  <path d="M 108 68 A 28 28 0 0 1 164 68" fill="none" stroke="#555566" stroke-width="1"/>
  <path d="M 108 68 A 28 28 0 0 1 152 50" fill="none" stroke="#f5a623" stroke-width="2.5"/>
  <line x1="136" y1="68" x2="148" y2="52" stroke="#e8e8e8" stroke-width="1.2"/>
  <circle cx="136" cy="68" r="2.5" fill="#e8e8e8"/>
  <text x="126" y="82" fill="#f5a623" font-family="monospace" font-size="10">60</text>
  <text x="118" y="92" fill="#555566" font-family="monospace" font-size="7">km/h</text>
  <!-- Compass -->
  <circle cx="200" cy="52" r="26" fill="none" stroke="#555566" stroke-width="0.5"/>
  <line x1="200" y1="28" x2="200" y2="76" stroke="#555566" stroke-width="0.4"/>
  <line x1="176" y1="52" x2="224" y2="52" stroke="#555566" stroke-width="0.4"/>
  <text x="197" y="32" fill="#e8e8e8" font-family="monospace" font-size="7">N</text>
  <text x="221" y="55" fill="#555566" font-family="monospace" font-size="6">E</text>
  <text x="197" y="76" fill="#555566" font-family="monospace" font-size="6">S</text>
  <text x="173" y="55" fill="#555566" font-family="monospace" font-size="6">W</text>
  <line x1="200" y1="52" x2="208" y2="34" stroke="#e05252" stroke-width="1.5"/>
  <circle cx="200" cy="52" r="2" fill="#e05252"/>
  <text x="14" y="90" fill="#555566" font-family="monospace" font-size="8" letter-spacing="1">PACK 6 — GAUGES · 8 COMPONENTS</text>
</svg>
