<svg xmlns="http://www.w3.org/2000/svg" width="240" height="100" viewBox="0 0 240 100">
  <rect width="240" height="100" fill="#13141f" rx="3"/>
  <text x="14" y="20" fill="#555566" font-family="monospace" font-size="8" letter-spacing="1.5">SIGNAL METER</text>
  <rect x="14" y="60" width="8" height="10" fill="#3ecf8e" opacity="0.5"/>
  <rect x="24" y="52" width="8" height="18" fill="#3ecf8e" opacity="0.6"/>
  <rect x="34" y="42" width="8" height="28" fill="#3ecf8e" opacity="0.7"/>
  <rect x="44" y="32" width="8" height="38" fill="#3ecf8e" opacity="0.85"/>
  <rect x="54" y="24" width="8" height="46" fill="#3ecf8e"/>
  <line x1="78" y1="28" x2="78" y2="70" stroke="#555566" stroke-width="0.5" stroke-dasharray="1 2"/>
  <text x="86" y="20" fill="#555566" font-family="monospace" font-size="8" letter-spacing="1.5">WAVEFORM</text>
  <polyline points="86,58 100,38 114,52 128,34 142,48 156,30 170,44 184,36 198,42 212,32" fill="none" stroke="#3ecf8e" stroke-width="1.5"/>
  <line x1="86" y1="48" x2="220" y2="48" stroke="#555566" stroke-width="0.5" stroke-dasharray="2 3"/>
  <!-- Heartbeat -->
  <polyline points="86,72 100,72 108,60 112,82 116,72 130,72" fill="none" stroke="#e05252" stroke-width="1"/>
  <rect x="140" y="68" width="8" height="8" fill="#3ecf8e"/>
  <text x="152" y="76" fill="#9a9aaa" font-family="monospace" font-size="7">ONLINE</text>
  <text x="14" y="90" fill="#555566" font-family="monospace" font-size="8" letter-spacing="1">PACK 1 — SIGNALS · 23 COMPONENTS</text>
</svg>
